<svg xmlns="http://www.w3.org/2000/svg" viewBox="0 0 1920 1080" preserveAspectRatio="xMidYMid slice">
  <defs>
    <linearGradient id="sky" x1="0" y1="0" x2="0" y2="1">
      <stop offset="0%" stop-color="#b9ecff"/>
      <stop offset="52%" stop-color="#d9f7ff"/>
      <stop offset="68%" stop-color="#77d4f4"/>
      <stop offset="100%" stop-color="#f2dfb6"/>
    </linearGradient>
    <radialGradient id="sun" cx="72%" cy="20%" r="20%">
      <stop offset="0%" stop-color="#fffef4" stop-opacity="0.95"/>
      <stop offset="100%" stop-color="#fffef4" stop-opacity="0"/>
    </radialGradient>
    <filter id="soft" x="-20%" y="-20%" width="140%" height="140%">
      <feGaussianBlur stdDeviation="14"/>
    </filter>
  </defs>
  <rect width="1920" height="1080" fill="url(#sky)"/>
  <ellipse cx="1380" cy="210" rx="320" ry="220" fill="url(#sun)"/>

  <g filter="url(#soft)" opacity="0.55">
    <ellipse cx="420" cy="300" rx="340" ry="90" fill="#ffffff"/>
    <ellipse cx="760" cy="250" rx="290" ry="80" fill="#ffffff"/>
    <ellipse cx="1120" cy="320" rx="350" ry="95" fill="#ffffff"/>
  </g>

  <path d="M0,620 C260,570 420,710 700,650 C930,600 1110,720 1420,655 C1650,610 1780,690 1920,650 L1920,820 L0,820 Z" fill="#56c7eb" opacity="0.85"/>
  <path d="M0,700 C300,640 500,750 760,700 C1020,650 1210,760 1520,700 C1720,660 1840,720 1920,700 L1920,860 L0,860 Z" fill="#3fb3df" opacity="0.8"/>
  <path d="M0,770 C220,730 440,820 710,775 C960,735 1160,825 1450,780 C1670,745 1800,810 1920,790 L1920,1080 L0,1080 Z" fill="#efddb4"/>
</svg>
